# xmcd
# Copyright (C) 1995-1998 Ti Kan
#
# Track frame offsets:
#       150
#       19167
#       31755
#       49890
#
# Disc length: 900 seconds
#
# Revision: 0
# Processed by: cddbd v1.4b42PL1 Copyright (c) Steve Scherf et al.
# Submitted via: CD-Transfer v1.0
#
DISCID=28038204
DTITLE=Pink Hellephant - Arid Zone
DYEAR=2000
DGENRE=
TTITLE0=V.I.P.
TTITLE1=Hijacker Of Disharmony
TTITLE2=Breathe
TTITLE3=Wavering Hope
EXTD=
EXTT0=
EXTT1=
EXTT2=
EXTT3=
PLAYORDER=
